<svg xmlns="http://www.w3.org/2000/svg" xmlns:xlink="http://www.w3.org/1999/xlink"><symbol id="icon-arrow-black-left" viewBox="0 0 16 29">
<path d="M1.9673 14.1924L14.9422 1.37269C15.2613 1.05741 15.2613 0.551755 14.9422 0.236466C14.6231 -0.0788221 14.1113 -0.0788221 13.7922 0.236466L0.239328 13.6273C-0.0797759 13.9426 -0.0797759 14.4482 0.239328 14.7635L13.7922 28.1484C13.9487 28.3031 14.1595 28.3864 14.3642 28.3864C14.5689 28.3864 14.7796 28.309 14.9362 28.1484C15.2553 27.8331 15.2553 27.3275 14.9362 27.0122L1.9673 14.1924Z" fill="black"/>
</symbol><symbol id="icon-arrow-black-right" viewBox="0 0 17 29">
<path d="M15.8936 13.632L2.33608 0.236548C2.01686 -0.0788495 1.50491 -0.0788495 1.1857 0.236548C0.866485 0.551946 0.866485 1.05777 1.1857 1.37317L14.1651 14.1974L1.1857 27.0216C0.866485 27.337 0.866485 27.8428 1.1857 28.1582C1.3423 28.3129 1.5531 28.3962 1.75788 28.3962C1.96266 28.3962 2.17346 28.3189 2.33005 28.1582L15.8876 14.7627C16.2068 14.4533 16.2068 13.9415 15.8936 13.632Z" fill="black"/>
</symbol><symbol id="icon-arrow-down" viewBox="0 0 14 88">
<path d="M11.1215 0.255882C11.446 -0.0582938 11.9851 -0.0703406 12.3256 0.228976C12.6662 0.528293 12.6792 1.02563 12.3548 1.3398C12.3548 1.3398 7.27031 6.18804 7.25555 6.20127C6.9042 6.5111 6.3471 6.49951 6.01124 6.17538L0.942607 1.33985C0.617583 1.02617 0.62974 0.528818 0.969759 0.228976C1.30978 -0.0708656 1.8489 -0.0596514 2.17392 0.254024L6.30574 4.12883C6.49806 4.30918 6.79736 4.30922 6.98972 4.12891L11.1215 0.255882Z" fill="#C4C4C4"/>
</symbol><symbol id="icon-arrow-left" viewBox="0 0 16 29">
<path d="M1.9673 14.1924L14.9422 1.37269C15.2613 1.05741 15.2613 0.551755 14.9422 0.236466C14.6231 -0.0788221 14.1113 -0.0788221 13.7922 0.236466L0.239328 13.6273C-0.0797759 13.9426 -0.0797759 14.4482 0.239328 14.7635L13.7922 28.1484C13.9487 28.3031 14.1595 28.3864 14.3642 28.3864C14.5689 28.3864 14.7796 28.309 14.9362 28.1484C15.2553 27.8331 15.2553 27.3275 14.9362 27.0122L1.9673 14.1924Z" fill="white"/>
</symbol><symbol id="icon-arrow-right" viewBox="0 0 17 29">
<path d="M15.8936 13.632L2.33608 0.236548C2.01686 -0.0788495 1.50491 -0.0788495 1.1857 0.236548C0.866485 0.551946 0.866485 1.05777 1.1857 1.37317L14.1651 14.1974L1.1857 27.0216C0.866485 27.337 0.866485 27.8428 1.1857 28.1582C1.3423 28.3129 1.5531 28.3962 1.75788 28.3962C1.96266 28.3962 2.17346 28.3189 2.33005 28.1582L15.8876 14.7627C16.2068 14.4533 16.2068 13.9415 15.8936 13.632Z" fill="white"/>
</symbol><symbol id="icon-arrow-up" viewBox="0 0 12 8">
<path fill-rule="evenodd" clip-rule="evenodd" d="M1.4 8L6 3.4L10.6 8L12 6.6L6 0.6L0 6.6L1.4 8Z" fill="#C4C4C4"/>
</symbol><symbol id="icon-rub-old" viewBox="0 0 8 10">
<mask id="path-1-inside-1" fill="white">
<path fill-rule="evenodd" clip-rule="evenodd" d="M3.1514 5.76372H4.10085H4.10095C4.48474 5.76372 4.86852 5.76372 5.2725 5.72525C6.76738 5.64832 7.95923 4.43655 7.99963 2.9555C8.01983 1.43598 6.84818 0.108807 5.35331 0.0318693C4.40387 -0.00659947 3.47462 -0.00660064 2.48477 0.0126338C2.04035 0.0318682 1.59593 0.0318693 1.13131 0.0318693H0.929297V3.91719V4.45576H0V5.74447H0.929297V6.26387H0.0199219V7.55257H0.929297V9.34128H2.38377V7.55257H4.62575V6.26387H2.38377V5.76372H3.1514ZM2.38377 4.45576H2.72713V4.47502H3.01001H3.35341H3.43422C4.28266 4.49425 4.86849 4.47502 5.2119 4.45578C6.01994 4.37884 6.66638 3.6864 6.64618 2.87856C6.64618 2.03224 5.95934 1.33981 5.0907 1.30134C4.6077 1.2726 4.12469 1.27607 3.62484 1.27966C3.45571 1.28088 3.28465 1.28211 3.11101 1.28211H2.38377V3.91719V4.45576Z"/>
</mask>
<path fill-rule="evenodd" clip-rule="evenodd" d="M3.1514 5.76372H4.10085H4.10095C4.48474 5.76372 4.86852 5.76372 5.2725 5.72525C6.76738 5.64832 7.95923 4.43655 7.99963 2.9555C8.01983 1.43598 6.84818 0.108807 5.35331 0.0318693C4.40387 -0.00659947 3.47462 -0.00660064 2.48477 0.0126338C2.04035 0.0318682 1.59593 0.0318693 1.13131 0.0318693H0.929297V3.91719V4.45576H0V5.74447H0.929297V6.26387H0.0199219V7.55257H0.929297V9.34128H2.38377V7.55257H4.62575V6.26387H2.38377V5.76372H3.1514ZM2.38377 4.45576H2.72713V4.47502H3.01001H3.35341H3.43422C4.28266 4.49425 4.86849 4.47502 5.2119 4.45578C6.01994 4.37884 6.66638 3.6864 6.64618 2.87856C6.64618 2.03224 5.95934 1.33981 5.0907 1.30134C4.6077 1.2726 4.12469 1.27607 3.62484 1.27966C3.45571 1.28088 3.28465 1.28211 3.11101 1.28211H2.38377V3.91719V4.45576Z" fill="#C4C4C4"/>
<path d="M5.2725 5.72525L5.25964 5.47535L5.24881 5.47638L5.2725 5.72525ZM7.99963 2.9555L8.24957 2.96232L8.24961 2.95882L7.99963 2.9555ZM5.35331 0.0318693L5.36616 -0.217815L5.36343 -0.217926L5.35331 0.0318693ZM2.48477 0.0126338L2.47991 -0.23739L2.47396 -0.237132L2.48477 0.0126338ZM0.929297 0.0318693V-0.218131H0.679297V0.0318693H0.929297ZM0.929297 4.45576V4.70576H1.1793V4.45576H0.929297ZM0 4.45576V4.20576H-0.25V4.45576H0ZM0 5.74447H-0.25V5.99447H0V5.74447ZM0.929297 5.74447H1.1793V5.49447H0.929297V5.74447ZM0.929297 6.26387V6.51387H1.1793V6.26387H0.929297ZM0.0199219 6.26387V6.01387H-0.230078V6.26387H0.0199219ZM0.0199219 7.55257H-0.230078V7.80257H0.0199219V7.55257ZM0.929297 7.55257H1.1793V7.30257H0.929297V7.55257ZM0.929297 9.34128H0.679297V9.59128H0.929297V9.34128ZM2.38377 9.34128V9.59128H2.63377V9.34128H2.38377ZM2.38377 7.55257V7.30257H2.13377V7.55257H2.38377ZM4.62575 7.55257V7.80257H4.87575V7.55257H4.62575ZM4.62575 6.26387H4.87575V6.01387H4.62575V6.26387ZM2.38377 6.26387H2.13377V6.51387H2.38377V6.26387ZM2.38377 5.76372V5.51372H2.13377V5.76372H2.38377ZM2.72713 4.45576H2.97713V4.20576H2.72713V4.45576ZM2.38377 4.45576H2.13377V4.70576H2.38377V4.45576ZM2.72713 4.47502H2.47713V4.72502H2.72713V4.47502ZM3.43422 4.47502L3.43989 4.22502H3.43422V4.47502ZM5.2119 4.45578L5.22589 4.70558L5.2356 4.70466L5.2119 4.45578ZM6.64618 2.87856H6.3961L6.39626 2.88481L6.64618 2.87856ZM5.0907 1.30134L5.07585 1.55093L5.07964 1.5511L5.0907 1.30134ZM3.62484 1.27966L3.62304 1.02967H3.62304L3.62484 1.27966ZM2.38377 1.28211V1.03211H2.13377V1.28211H2.38377ZM4.10085 5.51372H3.1514V6.01372H4.10085V5.51372ZM4.10095 5.51372H4.10085V6.01372H4.10095V5.51372ZM5.24881 5.47638C4.85845 5.51355 4.48623 5.51372 4.10095 5.51372V6.01372C4.48324 6.01372 4.87859 6.01389 5.2962 5.97413L5.24881 5.47638ZM7.74973 2.94868C7.71293 4.29745 6.62614 5.40525 5.25965 5.47558L5.28535 5.97492C6.90861 5.89138 8.20553 4.57565 8.24954 2.96232L7.74973 2.94868ZM5.34046 0.281539C6.69145 0.351071 7.7682 1.55708 7.74966 2.95218L8.24961 2.95882C8.27147 1.31489 7.00492 -0.133457 5.36616 -0.2178L5.34046 0.281539ZM2.48963 0.262587C3.47647 0.243411 4.40039 0.243465 5.34319 0.281664L5.36343 -0.217926C4.40734 -0.256664 3.47277 -0.256612 2.47992 -0.237319L2.48963 0.262587ZM1.13131 0.281869C1.59497 0.281869 2.04484 0.281908 2.49558 0.2624L2.47396 -0.237132C2.03586 -0.218172 1.59689 -0.218131 1.13131 -0.218131V0.281869ZM0.929297 0.281869H1.13131V-0.218131H0.929297V0.281869ZM1.1793 3.91719V0.0318693H0.679297V3.91719H1.1793ZM1.1793 4.45576V3.91719H0.679297V4.45576H1.1793ZM0 4.70576H0.929297V4.20576H0V4.70576ZM0.25 5.74447V4.45576H-0.25V5.74447H0.25ZM0.929297 5.49447H0V5.99447H0.929297V5.49447ZM1.1793 6.26387V5.74447H0.679297V6.26387H1.1793ZM0.0199219 6.51387H0.929297V6.01387H0.0199219V6.51387ZM0.269922 7.55257V6.26387H-0.230078V7.55257H0.269922ZM0.929297 7.30257H0.0199219V7.80257H0.929297V7.30257ZM1.1793 9.34128V7.55257H0.679297V9.34128H1.1793ZM2.38377 9.09128H0.929297V9.59128H2.38377V9.09128ZM2.13377 7.55257V9.34128H2.63377V7.55257H2.13377ZM4.62575 7.30257H2.38377V7.80257H4.62575V7.30257ZM4.37575 6.26387V7.55257H4.87575V6.26387H4.37575ZM2.38377 6.51387H4.62575V6.01387H2.38377V6.51387ZM2.13377 5.76372V6.26387H2.63377V5.76372H2.13377ZM3.1514 5.51372H2.38377V6.01372H3.1514V5.51372ZM2.72713 4.20576H2.38377V4.70576H2.72713V4.20576ZM2.97713 4.47502V4.45576H2.47713V4.47502H2.97713ZM3.01001 4.22502H2.72713V4.72502H3.01001V4.22502ZM3.35341 4.22502H3.01001V4.72502H3.35341V4.22502ZM3.43422 4.22502H3.35341V4.72502H3.43422V4.22502ZM5.19792 4.20617C4.86117 4.22503 4.2819 4.24417 3.43989 4.22508L3.42856 4.72495C4.28342 4.74433 4.8758 4.725 5.22588 4.70539L5.19792 4.20617ZM6.39626 2.88481C6.41299 3.55392 5.87312 4.14169 5.18821 4.20691L5.2356 4.70466C6.16676 4.61599 6.91977 3.81888 6.8961 2.87231L6.39626 2.88481ZM5.07964 1.5511C5.82211 1.58398 6.39618 2.17336 6.39618 2.87856H6.89618C6.89618 1.89112 6.09658 1.09564 5.10176 1.05159L5.07964 1.5511ZM3.62663 1.52965C4.12794 1.52605 4.60257 1.52273 5.07585 1.5509L5.10555 1.05178C4.61283 1.02246 4.12144 1.02609 3.62304 1.02967L3.62663 1.52965ZM3.11101 1.53211C3.28569 1.53211 3.45764 1.53087 3.62663 1.52965L3.62304 1.02967C3.45377 1.03088 3.28361 1.03211 3.11101 1.03211V1.53211ZM2.38377 1.53211H3.11101V1.03211H2.38377V1.53211ZM2.63377 3.91719V1.28211H2.13377V3.91719H2.63377ZM2.13377 3.91719V4.45576H2.63377V3.91719H2.13377Z" fill="white" mask="url(#path-1-inside-1)"/>
</symbol><symbol id="icon-rub" viewBox="0 0 16 18">
<path d="M2.67725 8.91791C2.67725 6.13866 2.67725 3.35941 2.67725 0.394878C5.48023 0.394878 8.01809 0.28371 10.5559 0.431937C13.2074 0.580164 15.2149 3.02591 15.1392 5.69399C15.0634 8.28795 13.018 10.5484 10.3665 10.6596C8.47263 10.7707 6.61658 10.6966 4.64692 10.6966L2.67725 8.91791ZM4.64692 2.09949C4.64692 4.47111 4.64692 6.69451 4.64692 8.99203C5.13933 9.02908 6.61659 8.99203 6.99537 8.99203C8.05596 8.99203 9.53322 9.02908 10.3665 8.91791C12.1468 8.73263 13.4347 7.21331 13.3968 5.5087C13.3589 3.72998 11.9953 2.21066 10.1393 2.09949C8.35898 2.02537 6.54083 2.09949 4.64692 2.09949Z" fill="#1C62CD"/>
<path d="M8.24571 11.1043C7.67754 11.1043 7.07148 11.1043 6.46543 11.1043C5.85938 11.1043 5.25333 11.1043 4.64728 11.1043V10.3631C5.25333 10.3631 5.85938 10.3631 6.46543 10.3631C7.79117 10.3631 9.07905 10.4002 10.3669 10.3261C12.7911 10.1779 14.7229 8.17681 14.7608 5.69402C14.8365 3.13711 12.9047 0.950759 10.5184 0.802532C8.77601 0.691362 7.03361 0.728416 5.21545 0.765473C4.49577 0.765473 3.77608 0.802532 3.05639 0.802532V8.955H2.29883V0.0613989H2.67761C3.54881 0.0613989 4.38213 0.0613966 5.21545 0.02434C7.07149 -0.0127167 8.81389 -0.0127144 10.5942 0.0613989C13.3972 0.209626 15.5941 2.76654 15.5562 5.69402C15.4804 8.54738 13.2456 10.8819 10.4426 11.0302C9.68508 11.1043 8.9654 11.1043 8.24571 11.1043ZM8.24571 9.36262C7.86693 9.36262 7.45027 9.36262 6.99574 9.36262C6.84422 9.36262 6.54121 9.36262 6.2003 9.36262C5.59425 9.36262 4.91244 9.36262 4.60941 9.36262L4.2685 9.32556V1.69189H4.64728C5.25333 1.69189 5.82152 1.69189 6.38969 1.69189C7.67755 1.69189 8.92753 1.65484 10.1775 1.72895C12.1851 1.84012 13.7759 3.50767 13.8138 5.50873C13.8517 7.43568 12.3366 9.10322 10.4426 9.2885C9.95023 9.36262 9.19267 9.36262 8.24571 9.36262ZM6.84421 8.62149C6.91997 8.62149 6.95786 8.62149 6.99574 8.62149C8.58662 8.65855 9.68508 8.62149 10.329 8.58443C11.8441 8.4362 13.0563 7.10216 13.0184 5.54578C13.0184 3.91529 11.7305 2.58125 10.1018 2.50714C8.88965 2.43303 7.67755 2.47008 6.38969 2.47008C5.93515 2.47008 5.4806 2.47008 5.02606 2.47008V8.62149C5.36697 8.62149 5.82152 8.62149 6.2003 8.62149C6.46545 8.62149 6.6927 8.62149 6.84421 8.62149Z" fill="#1C62CD"/>
<path d="M5.32865 8.99207H0.972656V10.7337H5.32865V8.99207Z" fill="#1C62CD"/>
<path d="M5.6702 11.0672H0.556641V8.58435H5.6702V11.0672ZM1.35207 10.326H4.9505V9.32548H1.35207V10.326Z" fill="#1C62CD"/>
<path d="M8.85134 12.4384H0.972656V14.18H8.85134V12.4384Z" fill="#1C62CD"/>
<path d="M9.23 14.5507H0.59375V12.0679H9.23V14.5507ZM1.35131 13.8095H8.47244V12.809H1.35131V13.8095Z" fill="#1C62CD"/>
<path d="M4.64692 7.91736H2.67725V17.6262H4.64692V7.91736Z" fill="#1C62CD"/>
<path d="M5.02606 17.9968H2.29883V7.54688H5.02606V17.9968ZM3.05639 17.2557H4.2685V8.28801H3.05639V17.2557Z" fill="#1C62CD"/>
</symbol></svg>